<svg width="97" height="164" viewBox="0 0 97 164" fill="none" xmlns="http://www.w3.org/2000/svg">
<path d="M28.2695 47.9199H48.2495C53.1095 47.9199 59.5195 47.9199 62.8295 49.9299C66.4595 52.0899 69.3095 56.0199 69.3095 61.4299C69.3095 67.2899 66.2295 71.6899 61.1295 73.7699V73.9299C67.9195 75.3199 71.6195 80.4099 71.6195 87.1999C71.6195 95.2999 65.8295 103.02 54.8795 103.02H28.2695V47.9199ZM35.5995 71.5999H50.2695C58.5995 71.5999 61.9995 68.5899 61.9995 62.7999C61.9995 55.1599 56.5995 54.0799 50.2695 54.0799H35.5995V71.5999ZM35.5995 96.8299H53.9695C60.2895 96.8299 64.3095 92.9699 64.3095 86.9599C64.3095 79.7799 58.5195 77.7799 52.3495 77.7799H35.5995V96.8299Z" fill="white"/>
<path d="M90.37 75.4797C90.37 98.6197 71.61 117.38 48.46 117.38C25.32 117.38 6.55996 98.6197 6.55996 75.4797C6.55996 52.3397 25.32 33.5797 48.46 33.5797C71.61 33.5897 90.37 52.3497 90.37 75.4797ZM48.47 27.1997C21.82 27.1997 0.209961 48.8097 0.209961 75.4597C0.209961 102.11 21.82 123.72 48.47 123.72C75.13 123.72 96.74 102.11 96.74 75.4597C96.74 48.8097 75.13 27.1997 48.47 27.1997Z" fill="white"/>
<path d="M96.6298 133.91H0.299805V140.24H96.6298V133.91Z" fill="white"/>
<path d="M93.62 126.94C93.74 126.94 93.85 126.93 93.96 126.93C94.06 126.92 94.16 126.9 94.24 126.87C94.33 126.83 94.39 126.77 94.44 126.7C94.49 126.62 94.51 126.52 94.51 126.39C94.51 126.28 94.49 126.18 94.45 126.12C94.41 126.05 94.35 126 94.28 125.97C94.21 125.93 94.14 125.91 94.04 125.89C93.95 125.88 93.87 125.88 93.77 125.88H93.08V126.95H93.62V126.94ZM93.85 125.44C94.25 125.44 94.54 125.52 94.74 125.68C94.93 125.84 95.03 126.08 95.03 126.41C95.03 126.72 94.94 126.93 94.78 127.08C94.61 127.22 94.4 127.3 94.14 127.33L95.1 128.81H94.54L93.62 127.36H93.07V128.81H92.54V125.45H93.85V125.44ZM91.49 128.09C91.6 128.39 91.77 128.66 91.99 128.88C92.2 129.1 92.45 129.27 92.74 129.4C93.02 129.52 93.34 129.58 93.67 129.58C94.01 129.58 94.32 129.52 94.6 129.4C94.89 129.27 95.14 129.1 95.35 128.88C95.56 128.66 95.73 128.4 95.84 128.09C95.96 127.79 96.03 127.47 96.03 127.12C96.03 126.77 95.97 126.45 95.84 126.15C95.72 125.85 95.55 125.59 95.35 125.37C95.13 125.15 94.88 124.98 94.6 124.86C94.32 124.74 94 124.67 93.67 124.67C93.34 124.67 93.02 124.74 92.74 124.86C92.45 124.99 92.19 125.16 91.99 125.37C91.77 125.59 91.61 125.85 91.49 126.15C91.37 126.45 91.31 126.76 91.31 127.12C91.3 127.46 91.36 127.79 91.49 128.09ZM91.01 125.98C91.16 125.63 91.37 125.34 91.63 125.08C91.89 124.82 92.2 124.63 92.55 124.48C92.9 124.33 93.28 124.26 93.66 124.26C94.06 124.26 94.43 124.33 94.79 124.48C95.13 124.63 95.44 124.82 95.69 125.08C95.95 125.34 96.17 125.64 96.31 125.98C96.47 126.33 96.54 126.71 96.54 127.12C96.54 127.53 96.47 127.91 96.31 128.26C96.16 128.62 95.95 128.92 95.69 129.18C95.43 129.45 95.13 129.64 94.79 129.79C94.43 129.93 94.06 130 93.66 130C93.27 130 92.9 129.93 92.55 129.79C92.2 129.64 91.89 129.45 91.63 129.18C91.37 128.92 91.16 128.62 91.01 128.26C90.85 127.91 90.79 127.53 90.79 127.12C90.78 126.71 90.85 126.33 91.01 125.98Z" fill="white"/>
<path d="M11.9798 5.97992C11.7498 5.60992 11.4698 5.28992 11.1298 5.01992C10.7898 4.73992 10.3998 4.52992 9.9698 4.36992C9.5398 4.21992 9.08981 4.13992 8.61981 4.13992C7.75981 4.13992 7.02981 4.30992 6.41981 4.63992C5.81981 4.96992 5.3298 5.41992 4.9598 5.97992C4.5898 6.53992 4.3098 7.17992 4.1398 7.89992C3.9698 8.61992 3.8798 9.35992 3.8798 10.1199C3.8798 10.8499 3.9598 11.5599 4.1398 12.2499C4.3098 12.9399 4.5798 13.5599 4.9598 14.1199C5.3298 14.6699 5.81981 15.1199 6.41981 15.4499C7.01981 15.7799 7.74981 15.9499 8.61981 15.9499C9.78981 15.9499 10.7098 15.5899 11.3598 14.8799C12.0198 14.1599 12.4198 13.2199 12.5698 12.0499H16.2798C16.1798 13.1399 15.9298 14.1199 15.5198 14.9999C15.1098 15.8799 14.5798 16.6299 13.9098 17.2399C13.2398 17.8599 12.4598 18.3299 11.5698 18.6599C10.6798 18.9799 9.68981 19.1499 8.61981 19.1499C7.28981 19.1499 6.08981 18.9199 5.01981 18.4499C3.94981 17.9899 3.05981 17.3499 2.31981 16.5299C1.58981 15.7199 1.0298 14.7599 0.639805 13.6599C0.249805 12.5599 0.0498047 11.3799 0.0498047 10.1099C0.0498047 8.80992 0.239805 7.59992 0.639805 6.48992C1.0298 5.37992 1.58981 4.39992 2.31981 3.57992C3.04981 2.74992 3.94981 2.09992 5.01981 1.62992C6.07981 1.15992 7.27981 0.919922 8.61981 0.919922C9.57981 0.919922 10.4898 1.05992 11.3398 1.32992C12.1898 1.60992 12.9598 2.00992 13.6298 2.53992C14.2998 3.06992 14.8598 3.71992 15.2998 4.49992C15.7398 5.27992 16.0198 6.17992 16.1298 7.17992H12.4198C12.3498 6.73992 12.2098 6.33992 11.9798 5.97992Z" fill="white"/>
<path d="M21.2702 15.7198C21.7902 16.2198 22.5402 16.4798 23.5102 16.4798C24.2102 16.4798 24.8102 16.3098 25.3202 15.9598C25.8202 15.6098 26.1302 15.2398 26.2502 14.8498H29.3002C28.8102 16.3598 28.0602 17.4498 27.0502 18.0998C26.0402 18.7498 24.8202 19.0798 23.3902 19.0798C22.4002 19.0798 21.5002 18.9198 20.7102 18.5998C19.9102 18.2798 19.2402 17.8298 18.6802 17.2498C18.1302 16.6698 17.7002 15.9698 17.4002 15.1498C17.1002 14.3398 16.9502 13.4398 16.9502 12.4698C16.9502 11.5298 17.1002 10.6498 17.4102 9.83982C17.7202 9.02982 18.1602 8.31982 18.7302 7.72982C19.3002 7.13982 19.9802 6.66982 20.7702 6.32982C21.5602 5.98982 22.4302 5.81982 23.3902 5.81982C24.4602 5.81982 25.4002 6.02983 26.2002 6.43983C27.0002 6.85983 27.6502 7.40983 28.1602 8.10983C28.6702 8.80983 29.0402 9.60982 29.2702 10.4998C29.5002 11.3898 29.5802 12.3298 29.5102 13.3098H20.4102C20.4602 14.3998 20.7402 15.2198 21.2702 15.7198ZM25.1802 9.08982C24.7602 8.63982 24.1302 8.40982 23.2902 8.40982C22.7402 8.40982 22.2802 8.49983 21.9102 8.68983C21.5402 8.87983 21.2502 9.10982 21.0302 9.37982C20.8102 9.65982 20.6602 9.94982 20.5702 10.2598C20.4802 10.5698 20.4302 10.8398 20.4102 11.0898H26.0502C25.8902 10.2098 25.6002 9.53982 25.1802 9.08982Z" fill="white"/>
<path d="M34.3698 6.13004V8.47004H34.4198C34.5798 8.08004 34.7998 7.72004 35.0798 7.38004C35.3598 7.05004 35.6698 6.76004 36.0298 6.53004C36.3898 6.30004 36.7698 6.11004 37.1798 5.98004C37.5898 5.85004 38.0098 5.79004 38.4498 5.79004C38.6798 5.79004 38.9298 5.83004 39.2098 5.91004V9.13004C39.0498 9.10004 38.8498 9.07004 38.6198 9.05004C38.3898 9.03004 38.1698 9.01004 37.9598 9.01004C37.3298 9.01004 36.7898 9.12004 36.3498 9.33004C35.9098 9.54004 35.5598 9.83004 35.2898 10.2C35.0198 10.57 34.8298 10.99 34.7198 11.48C34.6098 11.97 34.5498 12.5 34.5498 13.07V18.76H31.0898V6.13004H34.3698Z" fill="white"/>
<path d="M48.4696 6.12986V8.44986H45.9296V14.6999C45.9296 15.2899 46.0296 15.6799 46.2196 15.8699C46.4096 16.0599 46.8096 16.1599 47.3896 16.1599C47.5896 16.1599 47.7696 16.1499 47.9496 16.1399C48.1296 16.1199 48.2996 16.0999 48.4596 16.0699V18.7499C48.1696 18.7999 47.8396 18.8299 47.4796 18.8499C47.1196 18.8699 46.7696 18.8799 46.4296 18.8799C45.8896 18.8799 45.3796 18.8399 44.9096 18.7699C44.4296 18.6999 44.0096 18.5599 43.6396 18.3399C43.2696 18.1299 42.9896 17.8299 42.7696 17.4399C42.5596 17.0499 42.4496 16.5399 42.4496 15.8999V8.45986H40.3496V6.13986H42.4496V2.35986H45.9096V6.13986H48.4696V6.12986Z" fill="white"/>
<path d="M50.4902 4.17982V1.31982H53.9502V4.17982H50.4902ZM53.9502 6.12982V18.7398H50.4902V6.12982H53.9502Z" fill="white"/>
<path d="M55.3301 8.44983V6.12982H57.4001V5.14982C57.4001 4.02982 57.7501 3.10982 58.4501 2.38982C59.1501 1.66982 60.2101 1.31982 61.6201 1.31982C61.9301 1.31982 62.2401 1.32983 62.5501 1.35983C62.8601 1.37983 63.1601 1.40982 63.4501 1.41982V4.00982C63.0401 3.95982 62.6201 3.93983 62.1801 3.93983C61.7101 3.93983 61.3701 4.04982 61.1701 4.26982C60.9701 4.48982 60.8701 4.85982 60.8701 5.37982V6.13982H63.2601V8.45982H60.8701V18.7598H57.4001V8.45982H55.3301V8.44983Z" fill="white"/>
<path d="M65.5996 4.17982V1.31982H69.0596V4.17982H65.5996ZM69.0696 6.12982V18.7398H65.5996V6.12982H69.0696Z" fill="white"/>
<path d="M74.5297 15.7198C75.0497 16.2198 75.7997 16.4798 76.7697 16.4798C77.4697 16.4798 78.0697 16.3098 78.5797 15.9598C79.0797 15.6098 79.3897 15.2398 79.5097 14.8498H82.5597C82.0697 16.3598 81.3197 17.4498 80.3197 18.0998C79.3097 18.7498 78.0897 19.0798 76.6597 19.0798C75.6697 19.0798 74.7697 18.9198 73.9797 18.5998C73.1797 18.2798 72.5097 17.8298 71.9497 17.2498C71.3997 16.6698 70.9697 15.9698 70.6697 15.1498C70.3697 14.3398 70.2197 13.4398 70.2197 12.4698C70.2197 11.5298 70.3797 10.6498 70.6797 9.83981C70.9897 8.99981 71.4297 8.2998 71.9997 7.7098C72.5697 7.1198 73.2497 6.6498 74.0397 6.3098C74.8297 5.9698 75.6997 5.7998 76.6597 5.7998C77.7297 5.7998 78.6697 6.00981 79.4697 6.41981C80.2697 6.83981 80.9197 7.38981 81.4297 8.08981C81.9397 8.78981 82.3097 9.58981 82.5397 10.4798C82.7697 11.3698 82.8497 12.3098 82.7897 13.2898H73.6897C73.7297 14.3998 74.0097 15.2198 74.5297 15.7198ZM78.4497 9.08981C78.0397 8.63981 77.3997 8.40981 76.5597 8.40981C76.0097 8.40981 75.5497 8.49981 75.1797 8.68981C74.8097 8.87981 74.5197 9.1098 74.2997 9.3798C74.0797 9.6598 73.9297 9.94981 73.8397 10.2598C73.7497 10.5698 73.6997 10.8398 73.6797 11.0898H79.3097C79.1497 10.2098 78.8597 9.53981 78.4497 9.08981Z" fill="white"/>
<path d="M93.2996 17.1401C92.8896 17.8201 92.3596 18.3201 91.6996 18.6201C91.0396 18.9201 90.2996 19.0701 89.4696 19.0701C88.5296 19.0701 87.6996 18.8901 86.9796 18.5201C86.2596 18.1501 85.6696 17.6601 85.2096 17.0301C84.7496 16.4001 84.3996 15.6801 84.1596 14.8701C83.9196 14.0601 83.8096 13.2101 83.8096 12.3301C83.8096 11.4801 83.9296 10.6701 84.1596 9.88008C84.3896 9.09008 84.7496 8.40008 85.2096 7.79008C85.6696 7.19008 86.2596 6.70008 86.9496 6.34008C87.6496 5.97008 88.4596 5.79008 89.3896 5.79008C90.1396 5.79008 90.8496 5.95008 91.5196 6.27008C92.1996 6.59008 92.7296 7.05008 93.1196 7.67008H93.1696V1.33008H96.6296V18.7501H93.3396V17.1401H93.2996ZM93.1496 10.9001C93.0496 10.4201 92.8896 10.0001 92.6496 9.63008C92.4096 9.26008 92.1096 8.97008 91.7296 8.74008C91.3596 8.51008 90.8796 8.40008 90.3196 8.40008C89.7596 8.40008 89.2696 8.51008 88.8796 8.74008C88.4896 8.97008 88.1796 9.27008 87.9396 9.64008C87.7096 10.0101 87.5396 10.4401 87.4296 10.9201C87.3196 11.4001 87.2696 11.9001 87.2696 12.4201C87.2696 12.9101 87.3296 13.4001 87.4396 13.8801C87.5496 14.3701 87.7396 14.8001 87.9896 15.1901C88.2396 15.5701 88.5596 15.8801 88.9396 16.1201C89.3196 16.3601 89.7796 16.4701 90.3196 16.4701C90.8896 16.4701 91.3596 16.3601 91.7496 16.1301C92.1296 15.9001 92.4396 15.6001 92.6696 15.2101C92.8996 14.8301 93.0596 14.3901 93.1596 13.9101C93.2596 13.4201 93.3096 12.9201 93.3096 12.4001C93.2996 11.8801 93.2496 11.3801 93.1496 10.9001Z" fill="white"/>
<path d="M8.75004 152.67C8.58004 151.45 7.41004 150.52 6.07004 150.52C3.65004 150.52 2.74004 152.58 2.74004 154.73C2.74004 156.77 3.65004 158.83 6.07004 158.83C7.72004 158.83 8.65004 157.7 8.85004 156.08H11.47C11.19 159.14 9.08004 161.1 6.07004 161.1C2.27004 161.1 0.0400391 158.26 0.0400391 154.73C0.0400391 151.09 2.27004 148.25 6.07004 148.25C8.77004 148.25 11.03 149.83 11.36 152.67H8.75004Z" fill="white"/>
<path d="M17.0998 151.69C19.8998 151.69 21.6998 153.54 21.6998 156.38C21.6998 159.2 19.8998 161.05 17.0998 161.05C14.3198 161.05 12.5098 159.19 12.5098 156.38C12.5098 153.55 14.3198 151.69 17.0998 151.69ZM17.0998 159.22C18.7698 159.22 19.2598 157.79 19.2598 156.39C19.2598 154.96 18.7598 153.54 17.0998 153.54C15.4498 153.54 14.9498 154.97 14.9498 156.39C14.9498 157.79 15.4498 159.22 17.0998 159.22Z" fill="white"/>
<path d="M23.21 151.92H25.53V153.57H25.57C26.01 152.45 27.22 151.68 28.41 151.68C28.58 151.68 28.79 151.71 28.94 151.76V154.03C28.71 153.98 28.35 153.95 28.06 153.95C26.27 153.95 25.65 155.24 25.65 156.8V160.8H23.21V151.92Z" fill="white"/>
<path d="M29.8899 151.93H32.2099V153.06H32.2399C32.8199 152.12 33.7799 151.69 34.8799 151.69C37.6699 151.69 38.9199 153.94 38.9199 156.46C38.9199 158.83 37.6199 161.05 35.0199 161.05C33.9599 161.05 32.9399 160.59 32.3599 159.71H32.3199V163.94H29.8799V151.93H29.8899ZM36.4799 156.4C36.4799 154.99 35.9099 153.53 34.3499 153.53C32.7499 153.53 32.2399 154.96 32.2399 156.4C32.2399 157.84 32.7899 159.22 34.3699 159.22C35.9699 159.22 36.4799 157.84 36.4799 156.4Z" fill="white"/>
<path d="M44.2704 151.69C47.0704 151.69 48.8804 153.54 48.8804 156.38C48.8804 159.2 47.0704 161.05 44.2704 161.05C41.4904 161.05 39.6904 159.19 39.6904 156.38C39.6904 153.55 41.4904 151.69 44.2704 151.69ZM44.2704 159.22C45.9404 159.22 46.4404 157.79 46.4404 156.39C46.4404 154.96 45.9404 153.54 44.2704 153.54C42.6204 153.54 42.1204 154.97 42.1204 156.39C42.1304 157.79 42.6304 159.22 44.2704 159.22Z" fill="white"/>
<path d="M50.3899 151.92H52.7099V153.57H52.7499C53.1899 152.45 54.3999 151.68 55.5799 151.68C55.7499 151.68 55.9599 151.71 56.1099 151.76V154.03C55.8899 153.98 55.5299 153.95 55.2299 153.95C53.4399 153.95 52.8199 155.24 52.8199 156.8V160.8H50.3799V151.92H50.3899Z" fill="white"/>
<path d="M56.8296 154.66C56.9696 152.37 59.0096 151.69 61.0096 151.69C62.7796 151.69 64.9096 152.08 64.9096 154.21V158.83C64.9096 159.64 64.9896 160.44 65.2196 160.81H62.7396C62.6596 160.53 62.5796 160.24 62.5696 159.95C61.7996 160.76 60.6696 161.05 59.5796 161.05C57.8996 161.05 56.5596 160.21 56.5596 158.39C56.5596 156.38 58.0696 155.9 59.5796 155.69C61.0796 155.47 62.4696 155.52 62.4696 154.52C62.4696 153.47 61.7396 153.32 60.8896 153.32C59.9596 153.32 59.3596 153.7 59.2696 154.66H56.8296ZM62.4596 156.47C62.0396 156.83 61.1896 156.85 60.4296 156.99C59.6696 157.14 58.9896 157.4 58.9896 158.3C58.9896 159.21 59.6896 159.43 60.4896 159.43C62.3896 159.43 62.4696 157.92 62.4696 157.39V156.47H62.4596Z" fill="white"/>
<path d="M69.8302 151.93H71.6202V153.56H69.8302V157.96C69.8302 158.79 70.0402 158.99 70.8602 158.99C71.1202 158.99 71.3602 158.97 71.6202 158.92V160.83C71.2102 160.9 70.6702 160.92 70.1902 160.92C68.7002 160.92 67.3902 160.57 67.3902 158.81V153.57H65.9102V151.94H67.3902V149.28H69.8302V151.93Z" fill="white"/>
<path d="M75.9 150.56H73.46V148.55H75.9V150.56ZM73.46 151.93H75.9V160.81H73.46V151.93Z" fill="white"/>
<path d="M82.12 151.69C84.92 151.69 86.73 153.54 86.73 156.38C86.73 159.2 84.92 161.05 82.12 161.05C79.34 161.05 77.54 159.19 77.54 156.38C77.54 153.55 79.34 151.69 82.12 151.69ZM82.12 159.22C83.79 159.22 84.29 157.79 84.29 156.39C84.29 154.96 83.79 153.54 82.12 153.54C80.47 153.54 79.97 154.97 79.97 156.39C79.97 157.79 80.47 159.22 82.12 159.22Z" fill="white"/>
<path d="M88.2998 151.93H90.6198V153.17H90.6698C91.2898 152.17 92.3498 151.69 93.3898 151.69C95.9798 151.69 96.6398 153.15 96.6398 155.35V160.81H94.1998V155.79C94.1998 154.33 93.7698 153.61 92.6398 153.61C91.3098 153.61 90.7498 154.35 90.7498 156.16V160.82H88.3098V151.93H88.2998Z" fill="white"/>
</svg>
