<svg width="83" height="100" viewBox="0 0 83 100" fill="none" xmlns="http://www.w3.org/2000/svg">
<g clip-path="url(#clip0_149_1329)">
<path d="M3.11713 93.2876H0.429688V99.2761H1.60775V97.0058L3.11713 96.9936C4.07431 96.9936 5.08056 96.3432 5.08056 95.1406C5.09284 93.938 4.07431 93.2876 3.11713 93.2876ZM3.86569 95.1529C3.86569 95.4228 3.79206 95.6192 3.64481 95.7664C3.46073 95.9505 3.16622 96.0364 2.77353 96.0364L1.59547 96.0241V94.2816L2.77353 94.2693C3.27666 94.257 3.86569 94.4166 3.86569 95.1529Z" fill="white" stroke="white" stroke-width="0.5"/>
<path d="M11.4741 97.963C11.3514 97.6808 11.2287 97.3863 11.0569 97.104C10.9219 96.8831 10.7378 96.7113 10.4924 96.5641C11.3023 96.3064 11.7563 95.7419 11.7563 94.9688C11.7563 94.0116 10.8728 93.2876 9.69474 93.2876H7.10547V99.2761H8.28353V96.7727C8.33261 96.7727 8.3817 96.7727 8.44306 96.7727C8.93391 96.785 9.53521 96.8586 9.87881 97.3494C10.0874 97.644 10.2224 97.9998 10.3451 98.368C10.4433 98.6502 10.5537 98.9325 10.701 99.2024L10.7378 99.2761H12.2227L12.0631 99.0552C11.8054 98.7238 11.6459 98.3557 11.4741 97.963ZM9.5843 95.8523H8.28353V94.2816H9.44931C9.86654 94.2816 10.5537 94.392 10.5537 95.0915C10.5415 95.7173 10.0261 95.8523 9.5843 95.8523Z" fill="white" stroke="white" stroke-width="0.5"/>
<path d="M16.7139 93.1401C14.8732 93.1401 13.5479 94.4532 13.5479 96.2571C13.5479 98.0733 14.8854 99.3863 16.7139 99.3863C18.5546 99.3863 19.8799 98.0733 19.8799 96.2571C19.8799 94.4532 18.5546 93.1401 16.7139 93.1401ZM18.665 96.2694C18.665 97.2879 17.9901 98.3187 16.7139 98.3187C15.7444 98.3187 14.7627 97.6192 14.7627 96.2694C14.7627 95.0913 15.5849 94.2323 16.7139 94.2323C17.8429 94.2323 18.665 95.079 18.665 96.2694Z" fill="white" stroke="white" stroke-width="0.5"/>
<path d="M25.6964 96.8095C25.6964 97.8035 25.2424 98.3066 24.3588 98.3066C23.4753 98.3066 23.0335 97.8035 23.0335 96.8095V93.2876H21.8555V96.9322C21.8555 98.503 22.7636 99.3988 24.3588 99.3988C25.9541 99.3988 26.8745 98.503 26.8745 96.9322V93.2876H25.6964V96.8095Z" fill="white" stroke="white" stroke-width="0.5"/>
<path d="M31.2432 93.2876H29.1816V99.2761H31.2432C33.1699 99.2761 34.4584 98.0735 34.4584 96.2696C34.4706 94.4902 33.1699 93.2876 31.2432 93.2876ZM30.3597 94.2939H31.1083C32.4949 94.2939 33.2558 94.9933 33.2558 96.2696C33.2558 97.5581 32.4949 98.2698 31.1083 98.2698H30.3597V94.2939Z" fill="white" stroke="white" stroke-width="0.5"/>
<path d="M43.1952 97.7789L41.1704 93.2876H40.1396V99.2761H41.3177V96.0609L42.7903 99.2761H43.6002L45.0728 96.0609V99.2761H46.2508V93.2876H45.22L43.1952 97.7789Z" fill="white" stroke="white" stroke-width="0.5"/>
<path d="M48.7051 99.2761H52.8651V98.2453H49.8831V96.7727H52.4233V95.791H49.8831V94.3307H52.8651V93.2876H48.7051V99.2761Z" fill="white" stroke="white" stroke-width="0.5"/>
<path d="M58.1177 97.7789L56.0929 93.2876H55.0498V99.2761H56.2279V96.0609L57.7004 99.2761H58.5103L59.9952 96.0609V99.2761H61.161V93.2876H60.1302L58.1177 97.7789Z" fill="white" stroke="white" stroke-width="0.5"/>
<path d="M67.1617 95.9504C67.5912 95.7173 67.8243 95.3123 67.8243 94.7969C67.8243 93.8643 67.0758 93.2998 65.8609 93.2998H63.6152V99.276H66.1186C67.4562 99.276 68.3275 98.5765 68.3275 97.4966C68.3275 96.7358 67.9102 96.1836 67.1617 95.9504ZM67.1126 97.4353C67.1126 97.6807 67.039 97.8771 66.8917 98.0366C66.6954 98.2329 66.3886 98.3311 66.0082 98.3311H64.7933V96.564H65.9713C66.6954 96.564 67.1126 96.8831 67.1126 97.4353ZM64.7933 95.5455V94.2324H65.8364C66.3763 94.2324 66.6586 94.4411 66.6586 94.8583C66.6586 95.3001 66.3518 95.5455 65.8118 95.5455H64.7933Z" fill="white" stroke="white" stroke-width="0.5"/>
<path d="M70.377 99.2761H74.537V98.2453H71.555V96.7727H74.0952V95.791H71.555V94.3307H74.537V93.2876H70.377V99.2761Z" fill="white" stroke="white" stroke-width="0.5"/>
<path d="M81.6911 99.067C81.4334 98.7357 81.2738 98.3553 81.102 97.9626C80.9793 97.6804 80.8566 97.3858 80.6848 97.0913C80.5498 96.8704 80.3658 96.6986 80.1203 96.5514C80.9302 96.2937 81.3843 95.7292 81.3843 94.9561C81.3843 93.9989 80.5007 93.2749 79.3227 93.2749H76.7334V99.2756H77.9115V96.7723C77.9605 96.7723 78.0096 96.7723 78.071 96.7723C78.5618 96.7845 79.1631 96.8582 79.5067 97.349C79.7154 97.6435 79.8503 97.9994 79.9731 98.3676C80.0712 98.6498 80.1817 98.9443 80.3289 99.2143L80.3658 99.2879H81.8506L81.6911 99.067ZM80.1694 95.0911C80.1694 95.7292 79.654 95.8642 79.2122 95.8642H77.9115V94.2934H79.0772C79.4822 94.2812 80.1694 94.3793 80.1694 95.0911Z" fill="white" stroke="white" stroke-width="0.5"/>
<path opacity="0.5" d="M32.0649 30.9607C32.0649 30.7521 32.0771 30.5435 32.0894 30.3472H26.5918L34.2615 47.8217L34.3228 47.8094C34.9609 48.8525 35.9058 49.5152 36.9612 49.5152C38.2129 49.5152 39.305 48.5703 39.9309 47.1713H39.9431L41.158 44.4102L39.2314 40.0048C35.1205 39.0231 32.0649 35.3416 32.0649 30.9607Z" fill="white"/>
<path d="M46.447 31.4765C46.2752 31.3906 46.1034 31.2925 45.9439 31.182C45.6249 30.9611 45.3672 30.6789 45.2076 30.323C45.1463 30.2003 45.0849 30.0776 45.0113 29.9549C44.8272 29.6113 44.545 29.4149 44.1523 29.3904C43.9314 29.3781 43.7105 29.3659 43.5019 29.3413C43.1583 29.2922 42.8638 29.1572 42.692 28.8259C42.6552 28.74 42.5693 28.7155 42.4834 28.7155C42.3116 28.7032 42.1398 28.7277 41.9802 28.7891C41.5998 28.9486 41.2685 29.1818 40.9863 29.4763C40.6058 29.8813 40.3113 30.3353 40.0904 30.8507C40.0168 31.0225 39.9432 31.2066 39.9554 31.4029C39.9677 31.7342 40.0782 32.0288 40.25 32.311C40.3727 32.4951 40.5445 32.6178 40.7531 32.6791C40.8635 32.7037 40.9862 32.7282 41.0967 32.7282C41.3667 32.7405 41.6366 32.7282 41.9066 32.7282C41.9066 32.716 41.9066 32.716 41.9066 32.7037C41.9802 32.7037 42.0539 32.7037 42.1275 32.7037C42.5202 32.6914 42.7533 32.9 42.8761 33.2436C42.962 33.5136 42.9865 33.7958 42.9865 34.0781C42.9865 34.5935 42.962 35.1089 42.9497 35.6243C42.9497 35.8943 42.962 36.1765 43.0601 36.4342C43.146 36.6674 43.2442 36.7042 43.4651 36.6183C43.5142 36.5937 43.5633 36.5815 43.6001 36.5446C43.7351 36.4465 43.87 36.336 43.9928 36.2256C44.3977 35.8575 44.7413 35.428 45.0849 34.9985C45.3672 34.6426 45.6249 34.2744 45.8212 33.8695C46.0789 33.3418 46.2875 32.7896 46.4716 32.2374C46.5329 32.0533 46.5575 31.857 46.5452 31.6606C46.582 31.5747 46.5452 31.5134 46.447 31.4765Z" fill="white"/>
<path d="M40.814 25.8807C40.9122 25.7702 41.0104 25.6475 41.0963 25.5248C41.1699 25.4266 41.219 25.3285 41.2067 25.2058C41.1945 25.1321 41.1576 25.0708 41.084 25.0462C40.8754 24.9971 40.679 24.9726 40.4704 25.034C40.3845 25.0585 40.2986 25.0585 40.225 25.0708C40.225 25.0585 40.225 25.0585 40.225 25.0462C40.1514 25.0585 40.0655 25.0708 39.9918 25.0953C39.9182 25.1199 39.906 25.1689 39.9673 25.2303C40.0655 25.3285 40.0655 25.4266 40.0041 25.5371C39.9919 25.5616 39.9796 25.5862 39.9673 25.623C39.9305 25.7334 39.8569 25.7948 39.7587 25.8316C39.7096 25.8439 39.6728 25.893 39.636 25.9298C39.5992 25.9666 39.5746 26.0034 39.5501 26.0279C39.4519 26.1629 39.3415 26.2979 39.2433 26.4329C39.231 26.4452 39.2188 26.4697 39.2188 26.482C39.2188 26.5311 39.2187 26.5802 39.2433 26.6047C39.2678 26.6292 39.3292 26.6415 39.366 26.617C39.4642 26.5679 39.5623 26.5065 39.636 26.4329C39.9182 26.1138 40.2986 25.9911 40.7036 25.9052C40.7159 25.9543 40.7772 25.9298 40.814 25.8807Z" fill="white"/>
<path d="M41.3667 23.3281C37.1576 23.3281 33.7461 26.7396 33.7461 30.9487C33.7461 35.1578 37.1576 38.5693 41.3667 38.5693C45.5758 38.5693 48.9872 35.1578 48.9872 30.9487C48.9872 26.7396 45.5758 23.3281 41.3667 23.3281ZM46.2139 34.8019C45.4162 35.8082 44.3977 36.4954 43.1706 36.8758C42.4834 37.0844 41.7962 37.1703 41.0844 37.1458C40.0291 37.0967 39.0474 36.7899 38.1393 36.2377C38.1025 36.2131 38.0656 36.1763 38.0656 36.1518C37.9797 35.6977 37.9307 35.2437 37.992 34.7897C38.0166 34.6424 38.0656 34.532 38.2252 34.4829C38.3847 34.4338 38.4215 34.3111 38.3111 34.1761C38.2129 34.0534 38.1025 33.9552 37.9797 33.857C37.7957 33.7098 37.5993 33.5748 37.403 33.4643C37.0717 33.2803 36.8385 33.0103 36.6667 32.679C36.5072 32.3844 36.3599 32.0777 36.2004 31.7709L36.1881 31.7586C36.0899 31.4641 35.8445 31.3414 35.5868 31.2432C35.5132 31.2187 35.4396 31.1818 35.3782 31.1205C35.3168 31.0591 35.28 31.0469 35.2309 31.1082C35.2187 31.1205 35.2064 31.1328 35.1696 31.1573C35.145 30.3228 35.28 29.5375 35.5623 28.7766C35.5745 28.7766 35.5745 28.7766 35.5868 28.7766C35.5745 28.8135 35.5623 28.8503 35.55 28.8871C35.5377 28.9362 35.5132 28.973 35.5009 29.0098C35.4886 29.0466 35.4886 29.0834 35.5009 29.1325C35.5868 29.0343 35.6359 28.9116 35.6727 28.7889C35.7218 28.6171 35.8077 28.4576 35.9795 28.384C36.139 28.3103 36.274 28.1999 36.409 28.0894C36.5317 27.979 36.6667 27.8686 36.814 27.7827C37.0103 27.6477 37.2435 27.6722 37.4643 27.6354C37.5257 27.6231 37.5748 27.6231 37.6361 27.5986C37.7711 27.5618 37.857 27.4881 37.8938 27.3409C37.9061 27.3041 37.9184 27.255 37.9307 27.2182C37.9675 27.1445 38.0166 27.0955 38.1025 27.0832C38.2374 27.0709 38.3479 27.0096 38.4338 26.9237C38.5565 26.7887 38.6915 26.6537 38.8019 26.5064C38.8756 26.4083 38.9001 26.2733 38.8878 26.1506C38.8756 26.0156 38.8019 25.9542 38.6915 26.0156C38.5688 26.0769 38.4706 26.1628 38.3602 26.2365C38.2743 26.2978 38.2006 26.3714 38.1025 26.4328C38.0288 26.4819 37.9552 26.5064 37.8693 26.4451C37.7957 26.3837 37.7834 26.2978 37.7957 26.2119C37.8202 26.0892 37.8938 25.991 38.0043 25.9419C38.1638 25.8683 38.3356 25.8192 38.5074 25.7579C38.581 25.7333 38.6669 25.6965 38.7406 25.6597C38.7651 25.6474 38.8019 25.6106 38.8019 25.5738C38.8265 25.4634 38.9001 25.402 38.986 25.3529C39.0474 25.3161 39.121 25.2793 39.0964 25.1934C39.0964 25.1811 39.121 25.1688 39.1455 25.1566C39.5628 24.997 39.9923 24.8866 40.434 24.8252C40.9126 24.7516 41.3912 24.7393 41.8698 24.7762C42.2502 24.813 42.6183 24.8743 42.9865 24.9725C43.0356 24.9848 43.0601 25.0093 43.0601 25.0707C43.0724 25.2302 43.1092 25.3897 43.1337 25.5493C43.146 25.6474 43.1583 25.7579 43.1583 25.856C43.146 25.9788 43.0724 26.0156 42.9374 25.991C42.9497 25.9419 42.9742 25.9174 42.9865 25.8806C43.0233 25.7824 42.9865 25.7333 42.8883 25.7211C42.7165 25.6965 42.3852 25.856 42.2993 26.0156C42.2379 26.126 42.2625 26.2242 42.2993 26.3346C42.3238 26.4083 42.3484 26.4942 42.3606 26.5678C42.3852 26.7887 42.2993 26.9605 42.1152 27.0955C42.017 27.1691 41.9066 27.2304 41.8084 27.2918C41.6244 27.4145 41.5016 27.574 41.5016 27.8072C41.5016 27.8317 41.5016 27.8563 41.5016 27.8808C41.5016 28.0772 41.4526 28.2367 41.3053 28.3717C41.2439 28.433 41.1949 28.5067 41.1458 28.568C41.0967 28.6294 41.0721 28.703 41.1212 28.7766C41.158 28.8503 41.2439 28.8748 41.3176 28.8625C41.4526 28.8257 41.5875 28.7889 41.7103 28.7398C41.833 28.6785 41.9557 28.5926 42.0784 28.5312C42.1398 28.4944 42.2134 28.4576 42.2747 28.433C42.422 28.3717 42.5693 28.3717 42.7165 28.4576C42.7901 28.4944 42.8515 28.5312 42.9251 28.5558C43.011 28.5926 43.0969 28.5803 43.1706 28.5067C43.2074 28.4576 43.2074 28.433 43.1583 28.3962C43.0724 28.3349 42.9742 28.2735 42.8883 28.1999C42.8024 28.1263 42.7411 28.0404 42.7288 27.9054C42.7901 27.9422 42.8392 27.9545 42.8883 27.9913C43.1092 28.1263 43.3301 28.249 43.551 28.3962C43.7841 28.5558 44.0296 28.6417 44.2995 28.6907C44.68 28.7521 44.9745 28.9362 45.134 29.292C45.1463 29.3289 45.1708 29.3534 45.1831 29.3902C45.4285 29.8443 45.6862 30.3106 45.9316 30.7769C45.9807 30.8751 46.0175 30.9855 46.0421 31.0837C46.1034 31.3291 46.1525 31.3536 46.3366 31.1941C46.6188 30.9487 46.7661 30.6296 46.7293 30.2492C46.717 30.1633 46.6679 30.0651 46.6188 29.9792C46.5084 29.832 46.3857 29.697 46.2752 29.5497C46.2384 29.5129 46.2139 29.4761 46.1893 29.427C46.1648 29.3902 46.1648 29.3534 46.1525 29.3166C46.1893 29.3043 46.2384 29.292 46.2752 29.292C46.4961 29.292 46.6925 29.3534 46.8888 29.4393C47.0483 29.5007 47.2079 29.5743 47.3551 29.6479C47.3919 29.6602 47.4165 29.7093 47.4288 29.7461C47.5269 30.286 47.5637 30.826 47.5269 31.3659C47.4533 32.6667 47.0115 33.8079 46.2139 34.8019Z" fill="white"/>
<path d="M47.3064 30.335L41.1339 44.398L39.919 47.1591H39.9067C39.2931 48.5703 38.1887 49.503 36.937 49.503C35.8817 49.503 34.949 48.8403 34.2987 47.7972L34.2373 47.8095L36.9248 53.9452L38.0046 56.3995L38.3237 57.1235C38.9618 58.3261 39.9681 59.1115 41.1216 59.1115C42.2628 59.1115 43.2814 58.3261 43.9195 57.1235L44.2385 56.3995L45.3184 53.9452L55.6755 30.335H47.3064Z" fill="white"/>
<path d="M80.9693 41.1341C80.9693 63.135 63.1341 80.9703 41.1331 80.9703C19.1322 80.9703 1.29688 63.135 1.29688 41.1341C1.29688 19.1331 19.1322 1.29785 41.1331 1.29785C63.1341 1.29785 80.9693 19.1331 80.9693 41.1341Z" stroke="white"/>
<path d="M41.1335 81.8384C30.261 81.8384 20.0389 77.6047 12.357 69.9228C4.67505 62.2409 0.441406 52.0065 0.441406 41.134C0.441406 30.2615 4.67505 20.0394 12.357 12.3575C20.0389 4.67554 30.2733 0.441895 41.1335 0.441895C51.9937 0.441895 62.2281 4.67554 69.9101 12.3575C77.592 20.0394 81.8256 30.2615 81.8256 41.134C81.8256 52.0065 77.592 62.2286 69.9101 69.9105C62.2281 77.6047 52.006 81.8384 41.1335 81.8384ZM41.1335 1.15364C30.4574 1.15364 20.4193 5.31366 12.8601 12.8606C5.31317 20.4198 1.15315 30.4578 1.15315 41.134C1.15315 51.8102 5.31317 61.8482 12.8601 69.4074C20.407 76.9543 30.4574 81.1144 41.1335 81.1144C51.8097 81.1144 61.8477 76.9543 69.4069 69.4074C76.9539 61.8605 81.1139 51.8102 81.1139 41.134C81.1139 30.4578 76.9539 20.4198 69.4069 12.8606C61.86 5.31366 51.8219 1.15364 41.1335 1.15364Z" fill="white" stroke="white" stroke-opacity="0.75" stroke-width="0.5"/>
<path d="M13.8548 26.8622C14.3089 27.1322 14.7997 27.2794 15.2906 27.2794C15.4747 27.2794 15.6465 27.2549 15.8183 27.2181C16.5055 27.0585 17.0945 26.6168 17.524 25.9296C17.978 25.181 18.1498 24.4079 18.1008 24.0152V23.9907L16.0637 22.7513L14.947 24.5797L15.5728 24.9601L16.2355 23.8802L17.2417 24.4938C17.2295 24.6656 17.1558 25.0092 16.8613 25.5123C16.2968 26.4204 15.2906 26.6413 14.358 26.0768C13.4376 25.5123 13.1922 24.5183 13.7444 23.598C14.0512 23.0949 14.5175 22.8372 14.6893 22.739L14.7506 22.7022L14.358 21.9536L14.3089 21.9782C13.953 22.1745 13.4376 22.5304 13.0449 23.1808C12.6277 23.868 12.4927 24.6042 12.6645 25.2914C12.7995 25.9296 13.2413 26.4818 13.8548 26.8622Z" fill="white" stroke="white" stroke-width="0.5"/>
<path d="M15.4 19.5402L14.8633 20.2109L19.0504 23.5615L19.5871 22.8908L15.4 19.5402Z" fill="white" stroke="white" stroke-width="0.5"/>
<path d="M20.1252 21.5365C20.6283 21.5365 21.1191 21.3279 21.5118 20.9352C21.8922 20.5548 22.1131 20.064 22.1131 19.5608C22.1131 19.07 21.9045 18.5914 21.5364 18.2232C21.1682 17.8551 20.6896 17.6465 20.1988 17.6465C19.6957 17.6465 19.2171 17.8551 18.8244 18.2355C18.0267 19.0332 18.0145 20.1744 18.7876 20.9475C19.1557 21.3279 19.6343 21.5365 20.1252 21.5365ZM19.352 18.7755C19.5484 18.5791 19.7938 18.4809 20.0515 18.4809C20.0761 18.4809 20.0883 18.4809 20.1129 18.4809C20.3951 18.4932 20.6774 18.6282 20.8983 18.8491C21.1191 19.0822 21.2541 19.3522 21.2787 19.6467C21.2909 19.929 21.1928 20.1989 20.9842 20.4076C20.5547 20.8371 19.9043 20.8002 19.4257 20.3339C19.2048 20.113 19.0698 19.8308 19.0575 19.5486C19.033 19.254 19.1434 18.9841 19.352 18.7755Z" fill="white" stroke="white" stroke-width="0.5"/>
<path d="M23.9419 18.6282L23.7701 18.2478C24.1996 18.3337 24.6168 18.2355 25.0095 17.9533C25.8194 17.3643 25.9176 16.3212 25.2672 15.4254C24.6045 14.5173 23.586 14.2964 22.7761 14.8854C22.4202 15.1431 22.1993 15.4867 22.138 15.8794L20.9108 14.1982L20.2236 14.7014L23.3774 19.0332L23.9419 18.6282ZM23.0583 15.5972C23.2301 15.4745 23.4265 15.4131 23.6106 15.4131C23.9419 15.4131 24.2855 15.5972 24.5432 15.9531C24.7395 16.2108 24.8254 16.5053 24.8009 16.7752C24.7763 17.0575 24.6414 17.2906 24.4082 17.4624C23.9173 17.8183 23.3038 17.6833 22.9111 17.1434C22.5184 16.5789 22.5797 15.9531 23.0583 15.5972Z" fill="white" stroke="white" stroke-width="0.5"/>
<path d="M26.2734 13.8423C26.3839 13.5724 26.5925 13.3515 26.887 13.2042C27.3533 12.9588 27.7337 13.0324 27.9301 13.4251L28.0282 13.6092H28.016C27.2061 13.7073 26.617 14.0387 26.3471 14.5418C26.163 14.8854 26.1507 15.3026 26.3348 15.634C26.482 15.9285 26.752 16.1371 27.0711 16.2107C27.1692 16.2353 27.2674 16.2475 27.3779 16.2475C27.5987 16.2475 27.8319 16.1862 28.0405 16.0757C28.4455 15.8671 28.7523 15.499 28.8504 15.1063L29.1081 15.4008L29.7585 15.0572L28.7645 13.1429C28.5314 12.6888 28.2246 12.4066 27.8687 12.2961C27.5128 12.1857 27.0956 12.2593 26.617 12.5047C26.1384 12.7502 25.8194 13.0815 25.6476 13.4742L25.623 13.5233L26.2489 13.8914L26.2734 13.8423ZM27.1079 14.7259C27.1938 14.5541 27.4515 14.2596 28.2491 14.1491L28.3105 14.1368L28.335 14.1859C28.4455 14.4068 28.47 14.64 28.3841 14.8609C28.2982 15.0695 28.1387 15.2413 27.9178 15.3517C27.5374 15.5481 27.2306 15.4008 27.1079 15.1554C27.022 15.0327 27.022 14.8731 27.1079 14.7259Z" fill="white" stroke="white" stroke-width="0.5"/>
<path d="M29.5128 9.41679L28.7129 9.72998L30.6681 14.7237L31.468 14.4105L29.5128 9.41679Z" fill="white" stroke="white" stroke-width="0.5"/>
<path d="M35.8085 8.03809L34.9494 8.19762L33.8818 13.5234L34.839 13.3516L35.0722 12.014L37.0233 11.6582L37.7105 12.8362L38.6677 12.6644L35.833 8.0749L35.8085 8.03809ZM36.6306 10.9832L35.2194 11.2409L35.5753 9.1916L36.6306 10.9832Z" fill="white" stroke="white" stroke-width="0.5"/>
<path d="M39.7965 7.36312V7.30176L38.9375 7.35084L39.2443 12.6521L39.2566 12.7135L40.1033 12.6644L39.7965 7.36312Z" fill="white" stroke="white" stroke-width="0.5"/>
<path d="M41.2861 7.26096L41.1992 12.623L42.0581 12.637L42.1451 7.27488L41.2861 7.26096Z" fill="white" stroke="white" stroke-width="0.5"/>
<path d="M43.5175 9.08767L43.2256 12.6958L44.0818 12.7651L44.3736 9.15693L43.5175 9.08767Z" fill="white" stroke="white" stroke-width="0.5"/>
<path d="M44.0669 7.51017C43.9196 7.4979 43.7847 7.54698 43.6742 7.63288C43.5638 7.71878 43.5024 7.85377 43.4901 7.98875C43.4779 8.13601 43.527 8.271 43.6129 8.38144C43.711 8.49188 43.8337 8.55324 43.981 8.56551C43.9933 8.56551 44.0055 8.56551 44.0301 8.56551C44.1528 8.56551 44.2878 8.51643 44.386 8.4428C44.4964 8.34463 44.5578 8.22191 44.57 8.07465C44.5946 7.78014 44.3737 7.52244 44.0669 7.51017Z" fill="white" stroke="white" stroke-width="0.5"/>
<path d="M47.3682 9.4861C46.8405 9.38793 46.3865 9.43701 46.0061 9.63335L45.957 9.6579L46.2147 10.3328L46.276 10.296C46.5215 10.1488 46.8282 10.1119 47.1473 10.1733C47.405 10.2224 47.6013 10.3206 47.7241 10.4678C47.8345 10.6028 47.8713 10.7869 47.8345 10.9955L47.7977 11.2041L47.7854 11.1918C47.0859 10.7623 46.4233 10.6642 45.8956 10.8973C45.5397 11.0568 45.282 11.3759 45.2084 11.744C45.1471 12.0631 45.2207 12.3944 45.4293 12.6521C45.6256 12.9098 45.9324 13.0816 46.276 13.1553C46.7301 13.2412 47.1964 13.143 47.5155 12.8976L47.54 13.2902L48.264 13.4252L48.669 11.3023C48.7671 10.7991 48.7058 10.3942 48.4849 10.0874C48.264 9.79288 47.8959 9.59654 47.3682 9.4861ZM46.6196 12.5171C46.1901 12.4312 46.0551 12.1245 46.1042 11.8668C46.1288 11.7072 46.2392 11.5845 46.3865 11.5232C46.4478 11.4986 46.5583 11.4618 46.6933 11.4618C46.9141 11.4618 47.2209 11.5354 47.6382 11.7809L47.6995 11.8054L47.6873 11.8668C47.5768 12.4067 47.0614 12.603 46.6196 12.5171Z" fill="white" stroke="white" stroke-width="0.5"/>
<path d="M51.6755 11.4246C52.2277 11.621 52.1909 12.1241 52.0559 12.5045L51.381 14.4434L52.1909 14.7257L52.9272 12.6272C53.099 12.1487 53.0867 11.7192 52.8904 11.3756C52.7309 11.1056 52.4609 10.8847 52.1296 10.7743C51.7123 10.627 51.3074 10.6515 50.9883 10.8479L51.0251 10.492L50.3134 10.2466L49.123 13.6703L49.933 13.9526L50.6079 12.0259C50.8656 11.2406 51.4424 11.351 51.6755 11.4246Z" fill="white" stroke="white" stroke-width="0.5"/>
<path d="M55.8228 16.1736L55.6633 15.3759L55.6019 15.3882C55.3565 15.4618 55.0865 15.4373 54.8411 15.3146C54.2889 15.0323 54.1293 14.431 54.4361 13.8175C54.5834 13.523 54.8043 13.3143 55.062 13.2162C55.3197 13.1057 55.6142 13.1303 55.8841 13.2775C56.1296 13.4002 56.3136 13.6089 56.3995 13.8543L56.4241 13.9156L57.1604 13.5843L57.1358 13.5352C56.9395 13.1303 56.6327 12.8235 56.2155 12.6149C55.7369 12.3694 55.2092 12.3204 54.7429 12.4799C54.2766 12.6394 53.8962 12.9707 53.6507 13.4371C53.4176 13.9034 53.3562 14.4188 53.5035 14.8851C53.6507 15.3637 53.9943 15.7564 54.4729 16.0018C54.7797 16.1613 55.0988 16.2349 55.4056 16.2349C55.516 16.2349 55.6387 16.2227 55.7614 16.1981L55.8228 16.1736Z" fill="white" stroke="white" stroke-width="0.5"/>
<path d="M57.5532 17.8551C57.9336 18.1251 58.3386 18.2601 58.7312 18.2601C58.854 18.2601 58.9767 18.2478 59.0871 18.2233L59.1485 18.211L58.9276 17.4625L58.8785 17.4747C58.5594 17.5484 58.2527 17.487 57.9459 17.2784C57.4796 16.9471 57.3691 16.4194 57.6513 15.8917L59.897 17.4625L60.0688 17.217C60.3633 16.7875 60.4861 16.3089 60.4124 15.8549C60.3388 15.4008 60.0811 14.9959 59.6516 14.7014C59.2221 14.4069 58.719 14.2964 58.2404 14.3823C57.7618 14.4805 57.3323 14.7627 57.0378 15.1922C56.4119 16.0758 56.6205 17.2048 57.5532 17.8551ZM58.044 15.3886C58.4245 15.0572 58.8662 15.0204 59.2344 15.2781C59.6393 15.5604 59.7498 15.9776 59.5412 16.4317L58.044 15.3886Z" fill="white" stroke="white" stroke-width="0.5"/>
<path d="M61.8976 21.5117L63.996 19.4992L64.4992 20.0268L65.0146 19.536L64.5114 19.0083L64.9409 18.5911C65.2723 18.272 65.4563 18.3702 65.5545 18.4684C65.6281 18.542 65.6772 18.6524 65.6895 18.7752L65.7018 18.8365L66.4381 18.6647L66.4258 18.6156C66.3644 18.3211 66.254 18.1125 66.0576 17.9039C65.5668 17.3885 64.9164 17.4376 64.3151 18.0143L63.9224 18.3947L63.6034 18.0634L63.0879 18.5543L63.407 18.8856L61.3086 20.8981L61.8976 21.5117Z" fill="white" stroke="white" stroke-width="0.5"/>
<path d="M64.1671 21.2421C63.7499 21.5611 63.4799 22.0029 63.4063 22.4937C63.3326 22.9969 63.4799 23.5123 63.8112 23.9418C64.2039 24.4694 64.7684 24.7394 65.3329 24.7394C65.7256 24.7394 66.1305 24.6044 66.4987 24.3345C66.9159 24.0154 67.1859 23.5736 67.2472 23.095C67.3209 22.5919 67.1736 22.0888 66.8545 21.647C66.5232 21.2052 66.0692 20.923 65.566 20.8616C65.0875 20.8003 64.5843 20.9353 64.1671 21.2421ZM66.2533 22.1011C66.6214 22.5796 66.4987 23.2178 65.9587 23.6227C65.701 23.8191 65.4065 23.905 65.1243 23.8804C64.842 23.8559 64.5843 23.7209 64.4125 23.4877C64.0444 23.0091 64.1671 22.3588 64.707 21.9538C64.9402 21.782 65.1979 21.6961 65.4433 21.6961C65.7624 21.6961 66.0446 21.8311 66.2533 22.1011Z" fill="white" stroke="white" stroke-width="0.5"/>
<path d="M65.8367 26.8376L67.4811 25.905C67.9106 25.6596 68.4996 25.6105 68.7696 26.0891C68.831 26.1872 68.8555 26.2977 68.8678 26.3958V26.4572L69.6409 26.3099V26.2609C69.6409 26.1381 69.5918 25.9173 69.4691 25.7086C69.285 25.3896 69.015 25.2178 68.6346 25.181L68.9169 24.9355L68.5487 24.2852L65.4072 26.0768L65.8367 26.8376Z" fill="white" stroke="white" stroke-width="0.5"/>
<path d="M15.953 57.676C16.3457 57.9583 16.7629 57.9828 17.1678 57.7251C17.4378 57.5533 17.6219 57.3202 17.6832 57.0379C17.7814 56.6452 17.671 56.1789 17.3642 55.6881L16.3825 54.0928L12.0752 56.7434L13.1796 58.535C13.5969 59.1977 14.1245 59.5536 14.6645 59.5536C14.9099 59.5536 15.1553 59.4799 15.4008 59.3327C15.9898 58.9645 16.1739 58.3755 15.953 57.676ZM16.2598 55.2217L16.7629 56.0317C16.9101 56.2771 16.9592 56.4857 16.9224 56.6575C16.8856 56.7925 16.7997 56.9029 16.6524 57.0011C16.3088 57.2097 15.9407 57.087 15.683 56.6698L15.1921 55.8721L16.2598 55.2217ZM14.5418 56.2648L15.1062 57.1852C15.278 57.4552 15.3517 57.7251 15.3271 57.946C15.3026 58.1792 15.1799 58.3632 14.959 58.4982C14.7626 58.6209 14.5786 58.6578 14.3822 58.6087C14.1368 58.5473 13.9036 58.3632 13.7196 58.0687L13.1428 57.1361L14.5418 56.2648Z" fill="white" stroke="white" stroke-width="0.5"/>
<path d="M19.3646 61.1853C19.3892 60.8172 19.2296 60.4245 18.886 60.0196C18.5424 59.6146 18.1497 59.3692 17.7202 59.2833L17.6712 59.271L17.4503 59.9705L17.5116 59.9827C17.7939 60.0196 18.0638 60.1791 18.2725 60.4368C18.4443 60.6454 18.5302 60.8417 18.5424 61.0135C18.5424 61.1976 18.4565 61.3571 18.297 61.4921L18.1375 61.6271V61.6148C17.8552 60.854 17.4012 60.3509 16.849 60.2036C16.4686 60.1055 16.0759 60.1914 15.7814 60.4368C15.5359 60.6577 15.3887 60.9522 15.3887 61.2835C15.3887 61.6026 15.5114 61.9339 15.7323 62.2039C16.0268 62.5475 16.4563 62.7684 16.8612 62.7806L16.6404 63.0997L17.1189 63.6642L18.7633 62.2652C19.1315 61.9216 19.3401 61.5658 19.3646 61.1853ZM17.6712 62.0198L17.6221 62.0566C17.2048 62.4125 16.6772 62.253 16.3827 61.9094C16.2599 61.7621 16.1986 61.6026 16.1986 61.443C16.2109 61.2958 16.2722 61.1731 16.3827 61.0749C16.4686 61.0013 16.579 60.9645 16.6894 60.9645C16.7385 60.9645 16.7753 60.9645 16.8244 60.9767C17.0085 61.0258 17.3521 61.2099 17.6466 61.9584L17.6712 62.0198Z" fill="white" stroke="white" stroke-width="0.5"/>
<path d="M22.1009 63.2595C21.7695 62.965 21.3768 62.8423 21.0087 62.8914L21.1805 62.5846L20.616 62.0938L18.2354 64.818L18.8735 65.3825L20.2111 63.8486C20.4197 63.6031 20.6528 63.4804 20.886 63.4682C21.1191 63.4682 21.3155 63.5909 21.4382 63.689C21.88 64.0817 21.6591 64.5235 21.3891 64.8426L20.0393 66.3888L20.6896 66.9532L22.1499 65.2721C22.874 64.4499 22.604 63.689 22.1009 63.2595Z" fill="white" stroke="white" stroke-width="0.5"/>
<path d="M26.7521 66.7077L25.8072 66.0941L23.9419 66.4623L25.6109 63.8853L24.8991 63.4189L21.9785 67.9103L22.6903 68.3766L23.3529 67.3826L23.9051 67.2722L24.0033 69.2356L24.9359 69.8369L24.7273 67.1004L26.7521 66.7077Z" fill="white" stroke="white" stroke-width="0.5"/>
<path d="M27.5387 67.0652L25.8984 70.2925L26.6642 70.6817L28.3045 67.4544L27.5387 67.0652Z" fill="white" stroke="white" stroke-width="0.5"/>
<path d="M28.642 65.8241C28.507 65.7628 28.372 65.7505 28.2247 65.7873C28.0898 65.8241 27.9793 65.9223 27.918 66.045C27.783 66.3027 27.8934 66.634 28.1634 66.769C28.237 66.8058 28.3229 66.8304 28.4088 66.8304C28.4702 66.8304 28.5193 66.8181 28.5683 66.8058C28.7033 66.7568 28.8138 66.6709 28.8874 66.5359C29.0224 66.2782 28.9119 65.9591 28.642 65.8241Z" fill="white" stroke="white" stroke-width="0.5"/>
<path d="M31.1938 68.5973C30.7889 68.4378 30.3717 68.4623 30.0526 68.6341L30.1017 68.2783L29.4022 68.0083L28.126 71.3952L28.9236 71.702L29.6354 69.7999C29.7458 69.4931 29.9176 69.2968 30.1385 69.2109C30.3594 69.125 30.5803 69.1741 30.7398 69.2232C31.292 69.4318 31.2307 69.9349 31.0957 70.3153L30.3717 72.2419L31.1816 72.5487L31.9669 70.4626C32.3474 69.4441 31.8197 68.8305 31.1938 68.5973Z" fill="white" stroke="white" stroke-width="0.5"/>
<path d="M35.7587 70.0332C35.5623 69.8737 35.3046 69.7632 34.9978 69.7019C34.0775 69.5055 33.3535 69.8982 33.1817 70.6836C33.108 71.0395 33.1571 71.3708 33.3412 71.6653C33.059 71.788 32.8749 71.9967 32.8258 72.2666C32.7767 72.4752 32.8503 72.6839 33.0099 72.8557C32.6417 72.9538 32.384 73.2115 32.3104 73.5551C32.2613 73.776 32.2981 73.9724 32.4086 74.1564C32.6295 74.5 33.1326 74.7577 33.8934 74.9173C34.1757 74.9786 34.4334 75.0032 34.6665 75.0032C35.366 75.0032 35.82 74.7209 35.9305 74.1932C36.0164 73.8128 35.8937 73.4815 35.5623 73.2115C35.231 72.9293 34.7647 72.7943 34.4211 72.7207C33.9425 72.6225 33.6603 72.5366 33.5866 72.4262C33.5621 72.3893 33.5621 72.3525 33.5744 72.3034C33.5866 72.2298 33.6848 72.1562 33.8198 72.1194C33.9916 72.2175 34.1879 72.2912 34.4088 72.3403C35.3292 72.5366 36.0655 72.1316 36.2373 71.3463C36.2986 71.0518 36.2618 70.7695 36.1391 70.4995C36.2373 70.4136 36.4336 70.4259 36.6177 70.5118L36.6668 70.5363L36.9245 69.9351L36.8754 69.9105C36.5809 69.7755 36.09 69.7142 35.7587 70.0332ZM35.3905 71.1622C35.3046 71.5549 34.9733 71.7635 34.5683 71.6776C34.3597 71.6285 34.2125 71.5303 34.1143 71.3708C34.0284 71.2235 34.0039 71.0517 34.0407 70.8677C34.1143 70.5486 34.3843 70.2664 34.8629 70.3646C35.0715 70.4136 35.231 70.5118 35.3292 70.6591C35.4028 70.8063 35.4396 70.9904 35.3905 71.1622ZM33.2308 73.6288C33.2798 73.4201 33.4394 73.2852 33.6848 73.2483C33.8075 73.2974 33.9425 73.3342 34.1266 73.3711C34.6297 73.4815 34.9119 73.6042 35.0101 73.7637C35.0592 73.8374 35.0715 73.9233 35.0469 74.0214C34.9856 74.316 34.6542 74.4019 34.0407 74.2669C33.7462 74.2055 33.5375 74.1196 33.4026 74.0337C33.243 73.9233 33.1939 73.7883 33.2308 73.6288Z" fill="white" stroke="white" stroke-width="0.5"/>
<path d="M41.7348 70.3892C40.6058 70.4015 39.8082 71.2237 39.8205 72.3281C39.8327 72.8558 40.0291 73.3344 40.3849 73.678C40.7408 74.0216 41.2194 74.2057 41.7471 74.2057C41.7593 74.2057 41.7716 74.2057 41.7839 74.2057C42.9006 74.1934 43.7105 73.3712 43.686 72.2668C43.6737 71.7391 43.4773 71.2728 43.1215 70.9169C42.7779 70.5611 42.2747 70.377 41.7348 70.3892ZM41.0599 73.1626C40.839 72.954 40.7163 72.6472 40.7163 72.3036C40.704 71.6409 41.1458 71.1501 41.7471 71.1378H41.7593C42.0293 71.1378 42.2625 71.236 42.4465 71.4201C42.6674 71.6287 42.7901 71.9355 42.7901 72.2791C42.8024 72.954 42.3729 73.4448 41.7716 73.4448C41.5016 73.4448 41.2439 73.3467 41.0599 73.1626Z" fill="white" stroke="white" stroke-width="0.5"/>
<path d="M46.4472 69.9472C46.0177 70.0208 45.6618 70.2417 45.4777 70.5485L45.3427 70.2171L44.6064 70.3398L45.1955 73.9108L46.0422 73.7759L45.7109 71.7756C45.6618 71.4566 45.6986 71.1988 45.8459 71.0148C45.9931 70.8307 46.214 70.7571 46.3735 70.7325C46.9503 70.6344 47.1589 71.1007 47.2203 71.5056L47.5516 73.5304L48.3983 73.3954L48.0302 71.1988C47.8706 70.1067 47.0975 69.8367 46.4472 69.9472Z" fill="white" stroke="white" stroke-width="0.5"/>
<path d="M53.5403 66.3272L53.6875 70.4381L50.8651 67.4316L49.957 67.812L53.7735 71.6653L53.8103 71.6898L54.4975 71.3953L54.4484 65.9468L53.5403 66.3272Z" fill="white" stroke="white" stroke-width="0.5"/>
<path d="M57.615 66.0328C57.2468 65.9346 56.8296 66.0328 56.3633 66.3028C55.897 66.5728 55.5902 66.9164 55.4429 67.3213L55.4307 67.3704L56.081 67.7017L56.1056 67.6404C56.1915 67.3704 56.4001 67.1372 56.6823 66.9654C56.9278 66.8182 57.1609 66.7691 57.3573 66.8182C57.5168 66.855 57.6395 66.9654 57.7377 67.1372L57.8481 67.3213H57.8359C57.0382 67.4686 56.4615 67.8244 56.216 68.3521C56.0565 68.708 56.0688 69.113 56.2528 69.4443C56.4246 69.7265 56.6946 69.9229 57.0137 69.9842C57.0873 69.9965 57.1732 70.0088 57.2468 70.0088C57.4923 70.0088 57.75 69.9351 57.9709 69.8001C58.3635 69.567 58.6581 69.1743 58.7317 68.7939L59.0139 69.0761L59.652 68.708L58.5599 66.855C58.2776 66.3887 57.9709 66.1187 57.615 66.0328ZM57.3082 69.162C57.1732 69.1252 57.0505 69.0393 56.9769 68.9166C56.891 68.7816 56.891 68.6221 56.9646 68.4748C57.0382 68.303 57.2837 67.9962 58.069 67.8367L58.1304 67.8244L58.1549 67.8735C58.4372 68.3521 58.1917 68.8307 57.7991 69.0639C57.6273 69.1743 57.4555 69.1988 57.3082 69.162Z" fill="white" stroke="white" stroke-width="0.5"/>
<path d="M58.3476 62.9684L57.6582 63.481L60.8581 67.7845L61.5474 67.2719L58.3476 62.9684Z" fill="white" stroke="white" stroke-width="0.5"/>
<path d="M62.0444 62.0691L63.5293 63.6766C63.9588 64.2411 63.6152 64.6461 63.4556 64.7933C63.2838 64.9529 63.0875 65.0142 62.8912 64.9774C62.7071 64.9406 62.5107 64.8179 62.3144 64.6093L60.9155 63.0999L60.2773 63.6889L61.7867 65.321C62.1303 65.6891 62.4862 65.8732 62.8789 65.8732C62.8912 65.8732 62.9034 65.8732 62.9157 65.8732C63.2348 65.8609 63.5415 65.726 63.8115 65.4805C64.1306 65.1737 64.3024 64.8179 64.2901 64.4375L64.5846 64.6338L65.1368 64.1184L62.6825 61.4678L62.0444 62.0691Z" fill="white" stroke="white" stroke-width="0.5"/>
<path d="M67.8736 60.0567L67.1128 60.2285L67.125 60.2776C67.1864 60.5967 67.1005 60.9034 66.8673 61.1857C66.5115 61.6275 65.9715 61.7011 65.4561 61.3943L67.1741 59.2591L66.941 59.075C66.1065 58.4001 65.0634 58.4982 64.4008 59.3204C64.0695 59.7254 63.9345 60.2162 63.9958 60.7071C64.0572 61.1857 64.3149 61.6397 64.7198 61.9588C65.088 62.2533 65.4929 62.3883 65.9102 62.3883C66.4624 62.3883 67.0146 62.1306 67.4318 61.6152C67.8122 61.1366 67.984 60.5967 67.8981 60.1058L67.8736 60.0567ZM64.9653 59.7745C65.1616 59.5413 65.3948 59.4186 65.6525 59.4186C65.812 59.4186 65.9715 59.4677 66.1433 59.5536L64.9898 60.9771C64.683 60.5721 64.6708 60.1303 64.9653 59.7745Z" fill="white" stroke="white" stroke-width="0.5"/>
<path d="M70.1931 57.0253C70.1563 56.694 69.9845 56.4363 69.7023 56.2645C69.0642 55.884 68.5856 56.3258 68.1929 56.6817C67.8984 56.9517 67.6407 57.1848 67.3952 57.0376C67.1866 56.9148 67.1621 56.6694 67.3462 56.3626C67.4689 56.154 67.7143 55.9699 67.972 55.9086L68.0334 55.8963L67.8125 55.1846L67.7634 55.1968C67.4566 55.2705 67.0148 55.5159 66.7203 56.019C66.4994 56.3749 66.4135 56.7308 66.4626 57.0498C66.5117 57.3689 66.6835 57.6266 66.978 57.8107C67.6407 58.2156 68.1438 57.7616 68.5488 57.3934C68.8678 57.1112 69.0642 56.9394 69.2728 57.0498C69.3709 57.1112 69.42 57.1971 69.4323 57.3075C69.4446 57.4302 69.3955 57.5898 69.2973 57.7616C69.1132 58.0684 68.8433 58.2402 68.4751 58.2892L68.4138 58.3015L68.5978 59.0501H68.6469C69.1255 59.001 69.6164 58.6451 69.9477 58.0929C70.1318 57.7125 70.2299 57.3443 70.1931 57.0253Z" fill="white" stroke="white" stroke-width="0.5"/>
<path d="M11.3806 50.2735L11.3806 50.2735L11.3815 50.2763C11.4624 50.5395 11.6934 50.7105 11.964 50.7105C11.9648 50.7105 11.9659 50.7105 11.9671 50.7105C11.982 50.7106 12.024 50.7108 12.0652 50.7026C12.0899 50.6977 12.1321 50.6862 12.1746 50.6586C12.4707 50.5483 12.6309 50.2195 12.5342 49.9202C11.7194 47.1342 11.3059 44.2385 11.3059 41.306C11.3059 38.2637 11.756 35.246 12.644 32.3501C12.7511 32.0227 12.552 31.6954 12.2517 31.5953C11.9233 31.4858 11.5941 31.6853 11.4937 31.9866L11.4936 31.9865L11.4916 31.9931C10.5764 35.0106 10.1064 38.1397 10.1064 41.3183C10.1064 44.3601 10.5268 47.3782 11.3806 50.2735Z" fill="white" stroke="white" stroke-width="0.5"/>
<path d="M69.7186 49.9362L69.7185 49.9362L69.717 49.942C69.6321 50.2601 69.8218 50.5843 70.1249 50.6854C70.2005 50.7105 70.2589 50.7105 70.2981 50.7105L70.3021 50.7105C70.5427 50.7105 70.8194 50.5625 70.877 50.2728C71.7158 47.3823 72.1474 44.3687 72.1474 41.3305C72.1474 38.1534 71.6778 35.0131 70.7633 32.0086C70.6745 31.687 70.323 31.5052 70.0094 31.6051C69.688 31.6955 69.5073 32.0486 69.6099 32.3624C70.4978 35.2458 70.948 38.2635 70.948 41.3182C70.948 44.2521 70.5341 47.149 69.7186 49.9362Z" fill="white" stroke="white" stroke-width="0.5"/>
</g>
<defs>
<clipPath id="clip0_149_1329">
<rect width="82.28" height="100" fill="white"/>
</clipPath>
</defs>
</svg>
